<svg width="49" height="30" viewBox="0 0 49 30" fill="none" xmlns="http://www.w3.org/2000/svg">
<path d="M2 13C0.895431 13 0 13.8954 0 15C0 16.1046 0.895431 17 2 17V13ZM48.4142 16.4142C49.1953 15.6332 49.1953 14.3668 48.4142 13.5858L35.6863 0.857864C34.9052 0.0768158 33.6389 0.0768158 32.8579 0.857864C32.0768 1.63891 32.0768 2.90524 32.8579 3.68629L44.1716 15L32.8579 26.3137C32.0768 27.0948 32.0768 28.3611 32.8579 29.1421C33.6389 29.9232 34.9052 29.9232 35.6863 29.1421L48.4142 16.4142ZM2 17H47V13H2V17Z" fill="#666BFC"/>
</svg>
