<svg width="68" height="38" viewBox="0 0 68 38" fill="none" xmlns="http://www.w3.org/2000/svg">
<path d="M59.499 36.0604L59.4441 37.0589L59.4441 37.0589L59.499 36.0604ZM4.35568 0.0411101C3.8261 -0.115616 3.26974 0.186641 3.11301 0.716222L0.559005 9.34623C0.402279 9.87581 0.704536 10.4322 1.23412 10.5889C1.7637 10.7456 2.32006 10.4434 2.47678 9.91379L4.74701 2.24267L12.4181 4.51289C12.9477 4.66962 13.5041 4.36736 13.6608 3.83778C13.8175 3.3082 13.5153 2.75184 12.9857 2.59511L4.35568 0.0411101ZM59.4441 37.0589L67.4451 37.4985L67.5549 35.5015L59.5538 35.0619L59.4441 37.0589ZM3.1932 1.47738C14.5017 22.2927 35.791 35.7593 59.4441 37.0589L59.5538 35.0619C36.5936 33.8003 15.9278 20.7282 4.9506 0.522624L3.1932 1.47738Z" fill="black"/>
</svg>
